<svg xmlns="http://www.w3.org/2000/svg" xmlns:xlink="http://www.w3.org/1999/xlink" width="1757.546" height="711.579" viewBox="0 0 1757.546 711.579">
  <defs>
    <radialGradient id="radial-gradient" cx="903.506" cy="381.273" r="3116.486" gradientTransform="translate(541.399 228.467) scale(0.401 0.401)" gradientUnits="userSpaceOnUse">
      <stop offset="0" stop-color="#0084b0"/>
      <stop offset="1" stop-color="#005c80"/>
    </radialGradient>
    <filter id="Retângulo_9" x="0" y="0" width="1757.546" height="711.579" filterUnits="userSpaceOnUse">
      <feOffset dy="6" input="SourceAlpha"/>
      <feGaussianBlur stdDeviation="2" result="blur"/>
      <feFlood flood-opacity="0.302"/>
      <feComposite operator="in" in2="blur"/>
      <feComposite in="SourceGraphic"/>
    </filter>
    <clipPath id="clip-path">
      <rect id="Retângulo_78" data-name="Retângulo 78" width="508.507" height="699.579" fill="none"/>
    </clipPath>
    <linearGradient id="linear-gradient" x1="0.868" y1="-0.253" x2="0.958" y2="1.762" gradientUnits="objectBoundingBox">
      <stop offset="0"/>
      <stop offset="1" stop-opacity="0"/>
    </linearGradient>
    <linearGradient id="linear-gradient-2" x1="1.102" y1="2.053" x2="1.121" y2="3.209" xlink:href="#linear-gradient"/>
    <linearGradient id="linear-gradient-3" x1="4.936" y1="2.61" x2="3.647" y2="4.146" xlink:href="#linear-gradient"/>
    <linearGradient id="linear-gradient-4" x1="1.316" y1="1.073" x2="1.316" y2="3.318" xlink:href="#linear-gradient"/>
    <linearGradient id="linear-gradient-5" x1="0.519" y1="-0.639" x2="0.496" y2="0.762" gradientUnits="objectBoundingBox">
      <stop offset="0" stop-color="#247e72"/>
      <stop offset="1" stop-color="#236159"/>
    </linearGradient>
    <linearGradient id="linear-gradient-6" x1="1.251" y1="-1.339" x2="0.244" y2="1.126" xlink:href="#linear-gradient"/>
    <linearGradient id="linear-gradient-7" x1="0.453" y1="-0.32" x2="0.533" y2="1.077" xlink:href="#linear-gradient"/>
    <linearGradient id="linear-gradient-8" x1="6.215" y1="16.853" x2="6.136" y2="17.741" xlink:href="#linear-gradient"/>
    <linearGradient id="linear-gradient-9" x1="6.457" y1="6.079" x2="6.003" y2="8.325" xlink:href="#linear-gradient"/>
    <linearGradient id="linear-gradient-10" x1="-1.866" y1="40.285" x2="-1.929" y2="41.852" xlink:href="#linear-gradient"/>
  </defs>
  <g id="Grupo_113" data-name="Grupo 113" transform="translate(-33.597 -262.335)">
    <g transform="matrix(1, 0, 0, 1, 33.6, 262.33)" filter="url(#Retângulo_9)">
      <rect id="Retângulo_9-2" data-name="Retângulo 9" width="1745.546" height="699.579" transform="translate(6 0)" fill="url(#radial-gradient)"/>
    </g>
    <g id="Grupo_55" data-name="Grupo 55" transform="translate(66.562 289.298)">
      <g id="Grupo_54" data-name="Grupo 54">
        <path id="Caminho_105" data-name="Caminho 105" d="M1691.571,914.489H92.246v-4.148a42.047,42.047,0,0,0-42-42H46.1V314.983h4.148a42.047,42.047,0,0,0,42-42v-4.148H1691.571v4.148a42.047,42.047,0,0,0,42,42h4.148V868.341h-4.148a42.047,42.047,0,0,0-42,42Zm-1591.2-8.3H1683.445a50.378,50.378,0,0,1,45.978-45.978V323.109a50.374,50.374,0,0,1-45.978-45.978H100.372a50.378,50.378,0,0,1-45.978,45.978V860.215A50.381,50.381,0,0,1,100.372,906.192Z" transform="translate(-46.098 -268.835)" fill="#fff"/>
      </g>
    </g>
    <g id="Grupo_87" data-name="Grupo 87" transform="translate(39.597 262.335)">
      <g id="Grupo_86" data-name="Grupo 86" clip-path="url(#clip-path)">
        <g id="Grupo_65" data-name="Grupo 65" transform="translate(-134.957 68.145)">
          <g id="Grupo_57" data-name="Grupo 57" transform="translate(129.648 162.976)">
            <path id="Caminho_106" data-name="Caminho 106" d="M418.923,424.216,58.888,504.377,38.318,402.125l359.531-84.072Z" transform="translate(-38.318 -318.052)" fill="url(#linear-gradient)"/>
            <g id="Grupo_56" data-name="Grupo 56" transform="translate(130.592 36.067)">
              <path id="Caminho_107" data-name="Caminho 107" d="M69.8,348.632l7.624,34.243a14.127,14.127,0,0,0,16.858,10.719L165,377.848a14.127,14.127,0,0,0,10.719-16.862l-7.62-34.238Z" transform="translate(-69.8 -326.747)" fill="#fff"/>
            </g>
            <path id="Caminho_108" data-name="Caminho 108" d="M69.86,348.578l103.134,1-5.083-22.831Z" transform="translate(60.982 -290.68)" fill="#d7d7d7"/>
          </g>
          <g id="Grupo_64" data-name="Grupo 64" transform="translate(0)">
            <path id="Caminho_109" data-name="Caminho 109" d="M7.947,410.41,21.354,393.37,536.1,278.763l21.508,10.818Z" transform="translate(-4.28 -278.763)" fill="#03142b"/>
            <path id="Caminho_110" data-name="Caminho 110" d="M551.478,281.37c8.993-2,16.232,4.9,12.739,12.15l-38.407,79.727-26.428,54.871-3.14,6.517c-2.344,4.874-7.417,8.632-13.465,9.98L148.033,519.143c-6.048,1.348-12.237.1-16.427-3.323L126,511.25,78.784,472.776l-68.6-55.9c-6.239-5.086-2.613-14.4,6.38-16.406Z" transform="translate(-7.063 -271.659)" fill="#0a2b46"/>
            <path id="Caminho_111" data-name="Caminho 111" d="M86.214,298.389c.353,1.593-1.858,3.439-4.94,4.128s-5.865-.05-6.222-1.643,1.858-3.439,4.94-4.123S85.857,296.8,86.214,298.389Z" transform="translate(206.855 -222.943)" fill="#fff"/>
            <path id="Caminho_112" data-name="Caminho 112" d="M471.378,303.253l-26.428,54.871-3.314,6.882c-2.236,4.646-7.073,8.23-12.838,9.516L93.149,449.25c-5.766,1.286-11.664.091-15.663-3.169l-5.919-4.824L24.353,402.783Z" transform="translate(47.368 -201.666)" fill="#0a2b46"/>
            <path id="Caminho_113" data-name="Caminho 113" d="M513.064,286.279l-11.5,23.268-15.668,31.681-37.785,76.4L130.239,488.4,124.4,483.79,88.088,455.146,73.417,443.573,14.692,397.24Z" transform="translate(16.953 -255.102)" fill="#1b3f5c"/>
            <g id="Grupo_59" data-name="Grupo 59" transform="translate(141.354 43.489)" opacity="0.1">
              <g id="Grupo_58" data-name="Grupo 58">
                <path id="Caminho_114" data-name="Caminho 114" d="M374.5,289.247,108.936,465.263,46.978,479.058l-5.838-4.612L293.282,307.331Z" transform="translate(-41.14 -289.247)" fill="#fff"/>
              </g>
            </g>
            <g id="Grupo_61" data-name="Grupo 61" transform="translate(299.982 54.444)" opacity="0.1">
              <g id="Grupo_60" data-name="Grupo 60">
                <path id="Caminho_115" data-name="Caminho 115" d="M297.914,291.888l-15.668,31.681L127.777,425.95l-48.4,10.775Z" transform="translate(-79.381 -291.888)" fill="#fff"/>
              </g>
            </g>
            <g id="Grupo_63" data-name="Grupo 63" transform="translate(90.37 88.238)" opacity="0.1">
              <g id="Grupo_62" data-name="Grupo 62">
                <path id="Caminho_116" data-name="Caminho 116" d="M212.209,300.035,43.52,411.84,28.849,400.267,163.82,310.809Z" transform="translate(-28.849 -300.035)" fill="#fff"/>
              </g>
            </g>
          </g>
        </g>
        <g id="Grupo_77" data-name="Grupo 77" transform="translate(41.677 394.678)">
          <g id="Grupo_73" data-name="Grupo 73" transform="translate(0 7.963)">
            <rect id="Retângulo_10" data-name="Retângulo 10" width="339.841" height="117.812" rx="2.597" transform="translate(8.819 119.345) rotate(-13.508)" fill="url(#linear-gradient-2)"/>
            <path id="Caminho_117" data-name="Caminho 117" d="M380.29,364.134l.759,3.149L50.61,446.665l-.755-3.148a6.549,6.549,0,0,1,5.127-7.7L372.226,359.6A6.548,6.548,0,0,1,380.29,364.134Z" transform="translate(-49.497 -359.401)" fill="#d7d7d7"/>
            <rect id="Retângulo_11" data-name="Retângulo 11" width="339.841" height="117.812" rx="2.021" transform="translate(0 82.634) rotate(-13.509)" fill="#fff"/>
            <g id="Grupo_66" data-name="Grupo 66" transform="translate(17.129 52.851)">
              <rect id="Retângulo_12" data-name="Retângulo 12" width="13.86" height="7.796" transform="translate(0 42.595) rotate(-13.51)" fill="#d7d7d7"/>
              <rect id="Retângulo_13" data-name="Retângulo 13" width="13.86" height="7.796" transform="translate(27.305 36.035) rotate(-13.508)" fill="#d7d7d7"/>
              <rect id="Retângulo_14" data-name="Retângulo 14" width="13.86" height="7.796" transform="translate(54.609 29.476) rotate(-13.508)" fill="#d7d7d7"/>
              <rect id="Retângulo_15" data-name="Retângulo 15" width="13.86" height="7.797" transform="translate(81.914 22.916) rotate(-13.508)" fill="#d7d7d7"/>
              <rect id="Retângulo_16" data-name="Retângulo 16" width="13.86" height="7.797" transform="matrix(0.972, -0.234, 0.234, 0.972, 109.219, 16.356)" fill="#d7d7d7"/>
              <rect id="Retângulo_17" data-name="Retângulo 17" width="13.86" height="7.796" transform="translate(136.523 9.797) rotate(-13.508)" fill="#d7d7d7"/>
              <rect id="Retângulo_18" data-name="Retângulo 18" width="13.86" height="7.796" transform="translate(163.828 3.238) rotate(-13.508)" fill="#d7d7d7"/>
            </g>
            <g id="Grupo_67" data-name="Grupo 67" transform="translate(210.678 26.032)">
              <rect id="Retângulo_19" data-name="Retângulo 19" width="13.86" height="7.796" transform="translate(0 22.916) rotate(-13.508)" fill="#d7d7d7"/>
              <rect id="Retângulo_20" data-name="Retângulo 20" width="13.86" height="7.797" transform="translate(27.305 16.357) rotate(-13.508)" fill="#d7d7d7"/>
              <rect id="Retângulo_21" data-name="Retângulo 21" width="13.86" height="7.797" transform="translate(54.609 9.797) rotate(-13.51)" fill="#d7d7d7"/>
              <rect id="Retângulo_22" data-name="Retângulo 22" width="13.86" height="7.796" transform="translate(81.914 3.238) rotate(-13.509)" fill="#d7d7d7"/>
            </g>
            <g id="Grupo_72" data-name="Grupo 72" transform="translate(20.671 36.831)">
              <g id="Grupo_68" data-name="Grupo 68" transform="translate(0 30.456)">
                <rect id="Retângulo_23" data-name="Retângulo 23" width="13.448" height="13.448" transform="translate(0 42.898) rotate(-13.509)" fill="#d7d7d7"/>
                <rect id="Retângulo_24" data-name="Retângulo 24" width="13.448" height="13.448" transform="translate(20.686 37.929) rotate(-13.509)" fill="#d7d7d7"/>
                <rect id="Retângulo_25" data-name="Retângulo 25" width="13.448" height="13.448" transform="matrix(0.972, -0.234, 0.234, 0.972, 41.373, 32.959)" fill="#d7d7d7"/>
                <rect id="Retângulo_26" data-name="Retângulo 26" width="13.448" height="13.448" transform="matrix(0.972, -0.234, 0.234, 0.972, 62.06, 27.989)" fill="#d7d7d7"/>
                <rect id="Retângulo_27" data-name="Retângulo 27" width="13.448" height="13.448" transform="translate(82.746 23.02) rotate(-13.509)" fill="#d7d7d7"/>
                <rect id="Retângulo_28" data-name="Retângulo 28" width="13.448" height="13.448" transform="translate(103.432 18.05) rotate(-13.509)" fill="#d7d7d7"/>
                <rect id="Retângulo_29" data-name="Retângulo 29" width="13.448" height="13.448" transform="matrix(0.972, -0.234, 0.234, 0.972, 124.119, 13.08)" fill="#d7d7d7"/>
                <rect id="Retângulo_30" data-name="Retângulo 30" width="13.448" height="13.448" transform="translate(144.806 8.111) rotate(-13.509)" fill="#d7d7d7"/>
                <rect id="Retângulo_31" data-name="Retângulo 31" width="13.448" height="13.448" transform="matrix(0.972, -0.234, 0.234, 0.972, 165.492, 3.141)" fill="#d7d7d7"/>
              </g>
              <g id="Grupo_69" data-name="Grupo 69" transform="translate(4.227 15.347)">
                <rect id="Retângulo_32" data-name="Retângulo 32" width="13.448" height="13.448" transform="translate(0 75.602) rotate(-13.509)" fill="#d7d7d7"/>
                <rect id="Retângulo_33" data-name="Retângulo 33" width="13.448" height="13.448" transform="translate(20.686 70.632) rotate(-13.509)" fill="#d7d7d7"/>
                <rect id="Retângulo_34" data-name="Retângulo 34" width="13.448" height="13.448" transform="translate(41.373 65.663) rotate(-13.509)" fill="#d7d7d7"/>
                <rect id="Retângulo_35" data-name="Retângulo 35" width="13.448" height="13.448" transform="matrix(0.972, -0.234, 0.234, 0.972, 62.06, 60.693)" fill="#d7d7d7"/>
                <rect id="Retângulo_36" data-name="Retângulo 36" width="13.448" height="13.448" transform="matrix(0.972, -0.234, 0.234, 0.972, 82.746, 55.723)" fill="#d7d7d7"/>
                <rect id="Retângulo_37" data-name="Retângulo 37" width="13.448" height="13.448" transform="translate(103.433 50.754) rotate(-13.509)" fill="#d7d7d7"/>
                <rect id="Retângulo_38" data-name="Retângulo 38" width="13.448" height="13.448" transform="translate(124.119 45.784) rotate(-13.509)" fill="#d7d7d7"/>
                <rect id="Retângulo_39" data-name="Retângulo 39" width="13.448" height="13.448" transform="translate(144.806 40.815) rotate(-13.509)" fill="#d7d7d7"/>
                <rect id="Retângulo_40" data-name="Retângulo 40" width="13.448" height="13.448" transform="translate(165.492 35.845) rotate(-13.509)" fill="#d7d7d7"/>
                <rect id="Retângulo_41" data-name="Retângulo 41" width="13.448" height="13.448" transform="translate(182.784 13.081) rotate(-13.509)" fill="#d7d7d7"/>
                <rect id="Retângulo_42" data-name="Retângulo 42" width="13.448" height="13.448" transform="translate(203.47 8.111) rotate(-13.509)" fill="#d7d7d7"/>
                <rect id="Retângulo_43" data-name="Retângulo 43" width="13.448" height="13.448" transform="translate(224.157 3.141) rotate(-13.509)" fill="#d7d7d7"/>
                <rect id="Retângulo_44" data-name="Retângulo 44" width="13.448" height="13.448" transform="matrix(0.972, -0.234, 0.234, 0.972, 187.011, 30.676)" fill="#d7d7d7"/>
                <rect id="Retângulo_45" data-name="Retângulo 45" width="13.448" height="13.448" transform="translate(207.697 25.706) rotate(-13.509)" fill="#d7d7d7"/>
                <rect id="Retângulo_46" data-name="Retângulo 46" width="13.448" height="13.448" transform="translate(228.384 20.736) rotate(-13.509)" fill="#d7d7d7"/>
              </g>
              <g id="Grupo_70" data-name="Grupo 70" transform="translate(8.454 65.646)">
                <rect id="Retângulo_47" data-name="Retângulo 47" width="13.448" height="13.448" transform="translate(0 42.898) rotate(-13.509)" fill="#d7d7d7"/>
                <rect id="Retângulo_48" data-name="Retângulo 48" width="13.448" height="13.448" transform="matrix(0.972, -0.234, 0.234, 0.972, 20.687, 37.929)" fill="#d7d7d7"/>
                <rect id="Retângulo_49" data-name="Retângulo 49" width="13.448" height="13.448" transform="matrix(0.972, -0.234, 0.234, 0.972, 41.373, 32.959)" fill="#d7d7d7"/>
                <rect id="Retângulo_50" data-name="Retângulo 50" width="13.448" height="13.448" transform="translate(62.06 27.99) rotate(-13.509)" fill="#d7d7d7"/>
                <rect id="Retângulo_51" data-name="Retângulo 51" width="13.448" height="13.448" transform="translate(82.746 23.02) rotate(-13.509)" fill="#d7d7d7"/>
                <rect id="Retângulo_52" data-name="Retângulo 52" width="13.448" height="13.448" transform="matrix(0.972, -0.234, 0.234, 0.972, 103.433, 18.051)" fill="#d7d7d7"/>
                <rect id="Retângulo_53" data-name="Retângulo 53" width="13.448" height="13.448" transform="matrix(0.972, -0.234, 0.234, 0.972, 124.119, 13.081)" fill="#d7d7d7"/>
                <rect id="Retângulo_54" data-name="Retângulo 54" width="13.448" height="13.448" transform="matrix(0.972, -0.234, 0.234, 0.972, 144.806, 8.111)" fill="#d7d7d7"/>
                <rect id="Retângulo_55" data-name="Retângulo 55" width="13.448" height="13.448" transform="translate(165.492 3.141) rotate(-13.509)" fill="#d7d7d7"/>
              </g>
              <g id="Grupo_71" data-name="Grupo 71" transform="translate(12.681 0)">
                <rect id="Retângulo_56" data-name="Retângulo 56" width="13.448" height="13.448" transform="translate(0 126.139) rotate(-13.509)" fill="#d7d7d7"/>
                <rect id="Retângulo_57" data-name="Retângulo 57" width="13.448" height="13.448" transform="translate(20.687 121.169) rotate(-13.509)" fill="#d7d7d7"/>
                <rect id="Retângulo_58" data-name="Retângulo 58" width="77.273" height="13.448" transform="translate(41.373 116.199) rotate(-13.508)" fill="#d7d7d7"/>
                <rect id="Retângulo_59" data-name="Retângulo 59" width="13.448" height="13.448" transform="matrix(0.972, -0.234, 0.234, 0.972, 124.119, 96.321)" fill="#d7d7d7"/>
                <rect id="Retângulo_60" data-name="Retângulo 60" width="13.448" height="13.448" transform="translate(144.806 91.351) rotate(-13.509)" fill="#d7d7d7"/>
                <rect id="Retângulo_61" data-name="Retângulo 61" width="13.448" height="13.448" transform="translate(165.492 86.382) rotate(-13.509)" fill="#d7d7d7"/>
                <rect id="Retângulo_62" data-name="Retângulo 62" width="13.448" height="13.448" transform="matrix(0.972, -0.234, 0.234, 0.972, 238.215, 13.081)" fill="#d7d7d7"/>
                <rect id="Retângulo_63" data-name="Retângulo 63" width="13.448" height="13.448" transform="translate(258.902 8.111) rotate(-13.509)" fill="#d7d7d7"/>
                <rect id="Retângulo_64" data-name="Retângulo 64" width="13.448" height="13.448" transform="translate(279.588 3.141) rotate(-13.509)" fill="#d7d7d7"/>
                <rect id="Retângulo_65" data-name="Retângulo 65" width="13.448" height="13.448" transform="matrix(0.972, -0.234, 0.234, 0.972, 242.442, 30.675)" fill="#d7d7d7"/>
                <rect id="Retângulo_66" data-name="Retângulo 66" width="13.448" height="13.448" transform="translate(263.129 25.706) rotate(-13.507)" fill="#d7d7d7"/>
                <rect id="Retângulo_67" data-name="Retângulo 67" width="13.448" height="13.448" transform="translate(283.815 20.736) rotate(-13.509)" fill="#d7d7d7"/>
                <rect id="Retângulo_68" data-name="Retângulo 68" width="13.448" height="13.448" transform="translate(246.669 48.27) rotate(-13.509)" fill="#d7d7d7"/>
                <rect id="Retângulo_69" data-name="Retângulo 69" width="13.448" height="13.448" transform="translate(267.355 43.3) rotate(-13.509)" fill="#d7d7d7"/>
                <rect id="Retângulo_70" data-name="Retângulo 70" width="13.448" height="13.448" transform="translate(271.582 60.895) rotate(-13.509)" fill="#d7d7d7"/>
                <rect id="Retângulo_71" data-name="Retângulo 71" width="13.448" height="13.448" transform="translate(288.042 38.331) rotate(-13.509)" fill="#d7d7d7"/>
                <rect id="Retângulo_72" data-name="Retângulo 72" width="13.448" height="13.448" transform="translate(250.896 65.865) rotate(-13.509)" fill="#d7d7d7"/>
                <rect id="Retângulo_73" data-name="Retângulo 73" width="13.448" height="13.448" transform="matrix(0.972, -0.234, 0.234, 0.972, 292.269, 55.925)" fill="#d7d7d7"/>
                <rect id="Retângulo_74" data-name="Retângulo 74" width="13.448" height="13.448" transform="translate(203.471 58.648) rotate(-13.509)" fill="#d7d7d7"/>
                <rect id="Retângulo_75" data-name="Retângulo 75" width="13.448" height="13.448" transform="translate(187.011 81.212) rotate(-13.509)" fill="#d7d7d7"/>
                <rect id="Retângulo_76" data-name="Retângulo 76" width="13.448" height="13.448" transform="translate(207.698 76.243) rotate(-13.509)" fill="#d7d7d7"/>
                <rect id="Retângulo_77" data-name="Retângulo 77" width="13.448" height="13.448" transform="matrix(0.972, -0.234, 0.234, 0.972, 228.384, 71.273)" fill="#d7d7d7"/>
              </g>
            </g>
          </g>
          <g id="Grupo_76" data-name="Grupo 76" transform="translate(371.722)">
            <path id="Caminho_118" data-name="Caminho 118" d="M189.2,373.058a26.088,26.088,0,0,0-28.24-12.146c-.73.145-1.452.328-2.165.535a27.817,27.817,0,0,0-14.195,9.528l0,0a26.028,26.028,0,0,0-5.227,18.517c.033.365.062.73.1,1.1,2.858,26.6,17.75,25.42,18.048,36.06.755,26.921,17.123,31.306,28.784,28.577l.029-.008c4.8-1.128,8.79-3.455,10.569-5.915C205.394,437.553,203.859,396.844,189.2,373.058Z" transform="translate(-139.257 -348.586)" fill="url(#linear-gradient-3)"/>
            <g id="Grupo_75" data-name="Grupo 75" transform="translate(1.153)">
              <path id="Caminho_119" data-name="Caminho 119" d="M197.181,446.482c-1.78,2.46-5.774,4.791-10.569,5.915l-.029.008c-11.66,2.73-28.029-1.655-28.784-28.572-.3-10.644-15.19-9.462-18.048-36.064-.042-.369-.07-.734-.1-1.1a26.034,26.034,0,0,1,5.227-18.521l0,0a27.815,27.815,0,0,1,14.195-9.528c.714-.208,1.435-.39,2.165-.535a26.093,26.093,0,0,1,28.24,12.146C204.137,394.016,205.672,434.726,197.181,446.482Z" transform="translate(-139.535 -357.481)" fill="#fff"/>
              <g id="Grupo_74" data-name="Grupo 74" transform="translate(19.537 0.604)">
                <path id="Caminho_120" data-name="Caminho 120" d="M158.718,387.182h0a1.055,1.055,0,0,1-1.273-.755c-3.323-12.552-9.9-23.366-13.2-28.265.713-.208,1.435-.39,2.165-.535,3.5,5.293,9.814,15.966,13.071,28.273A1.05,1.05,0,0,1,158.718,387.182Z" transform="translate(-144.245 -357.627)" fill="#d7d7d7"/>
              </g>
              <path id="Caminho_121" data-name="Caminho 121" d="M186.583,444.306c-11.66,2.73-28.029-1.655-28.784-28.572-.3-10.644-15.19-9.462-18.048-36.064-.042-.369-.07-.734-.1-1.1a26.034,26.034,0,0,1,5.227-18.521c-.141.378-5.9,15.444,2.149,27.747,8.155,12.457,16.286,12.025,17.683,31.509C166.07,438.366,177.424,445.808,186.583,444.306Z" transform="translate(-139.535 -349.383)" fill="#d7d7d7"/>
            </g>
          </g>
        </g>
        <g id="Grupo_85" data-name="Grupo 85" transform="translate(113.367 335.132)">
          <path id="Caminho_122" data-name="Caminho 122" d="M232.563,362.935a5.482,5.482,0,0,0-6.608-4.057l-6.869,1.643a33.355,33.355,0,0,0-59.924,7.861l-23.653,5.658a33.354,33.354,0,0,0-57,20.1l-7.056,1.684a5.485,5.485,0,0,0,2.551,10.669l3.825-.917h0l1.46-.12a33.161,33.161,0,0,0,8.881,15.651l-7.861,3.227s1.315,7.591,10.449,5.8a30.717,30.717,0,0,0,6.732-2.464,33.336,33.336,0,0,0,47-23.727l11.47-4.7,8.275-.672a33.354,33.354,0,0,0,53.726-.415,38.737,38.737,0,0,0,10.117-.867c8.96-2.534,6.7-9.9,6.7-9.9l-11.918.958a33.181,33.181,0,0,0,.755-16.8l4.886-2A5.483,5.483,0,0,0,232.563,362.935ZM145,394.61a33.176,33.176,0,0,0-.755-4.916c-.133-.552-.315-1.078-.473-1.618,3.862-4.053,8.446-5.438,14.236-4.169.129.8.253,1.593.444,2.389a33.909,33.909,0,0,0,1.767,5.26l-5.55,2.277Zm12.95-21.255a33.482,33.482,0,0,0-.394,5.891,18.294,18.294,0,0,0-15.5,4.148,33.247,33.247,0,0,0-3.219-5.467Z" transform="translate(-65.926 -336.928)" fill="url(#linear-gradient-4)"/>
          <g id="Grupo_84" data-name="Grupo 84">
            <g id="Grupo_79" data-name="Grupo 79" transform="translate(13.065 19.345)">
              <g id="Grupo_78" data-name="Grupo 78">
                <path id="Caminho_123" data-name="Caminho 123" d="M216.086,347.79,70.077,407.685s1.315,7.591,10.453,5.8,28.6-15.9,28.6-15.9l109.145-44.692Z" transform="translate(-70.077 -347.79)" fill="#03142b"/>
              </g>
            </g>
            <g id="Grupo_81" data-name="Grupo 81" transform="translate(10.232 42.296)">
              <g id="Grupo_80" data-name="Grupo 80">
                <path id="Caminho_124" data-name="Caminho 124" d="M69.394,365.966,226.7,353.323s2.261,7.367-6.7,9.9-32.7-1.24-32.7-1.24L69.751,371.508Z" transform="translate(-69.394 -353.323)" fill="#03142b"/>
              </g>
            </g>
            <g id="Grupo_82" data-name="Grupo 82" transform="translate(14.826 22.704)">
              <path id="Caminho_125" data-name="Caminho 125" d="M129.013,371.374a29.69,29.69,0,0,1-29.385,36.561l-.025.008A29.75,29.75,0,0,1,73.134,390.5a30.392,30.392,0,0,1-1.813-5.326,29.663,29.663,0,0,1,21.948-35.744,30.447,30.447,0,0,1,5.571-.8,29.786,29.786,0,0,1,24.885,11.594,29.345,29.345,0,0,1,2.651,4.123l0,.021A29.633,29.633,0,0,1,129.013,371.374Z" transform="translate(-70.501 -348.6)" fill="#fff" opacity="0.3"/>
              <path id="Caminho_126" data-name="Caminho 126" d="M111.219,351.637l-30.9,50.321A29.689,29.689,0,0,1,71.136,390.5L96.842,348.63A29.669,29.669,0,0,1,111.219,351.637Z" transform="translate(-68.504 -348.6)" fill="#fff" opacity="0.3"/>
              <path id="Caminho_127" data-name="Caminho 127" d="M107.988,355.525l0,.021L81.241,399.114l-.025.008a29.788,29.788,0,0,1-4.874-.5l29-47.222A29.345,29.345,0,0,1,107.988,355.525Z" transform="translate(-52.115 -339.778)" fill="#fff" opacity="0.3"/>
            </g>
            <g id="Grupo_83" data-name="Grupo 83" transform="translate(94.23 3.717)">
              <path id="Caminho_128" data-name="Caminho 128" d="M148.179,366.789a29.706,29.706,0,0,1-29.41,36.566,34.948,34.948,0,0,1-4.874-.494,29.889,29.889,0,0,1-12.415-5.488,29.52,29.52,0,0,1-9.2-11.432,30.549,30.549,0,0,1-1.821-5.351,29.683,29.683,0,0,1,21.973-35.748,29.383,29.383,0,0,1,5.55-.788,29.767,29.767,0,0,1,24.905,11.586,28.956,28.956,0,0,1,2.646,4.123l0,.021A29.459,29.459,0,0,1,148.179,366.789Z" transform="translate(-89.644 -344.023)" fill="#fff" opacity="0.3"/>
              <path id="Caminho_129" data-name="Caminho 129" d="M130.376,347.052l-30.9,50.321a29.52,29.52,0,0,1-9.2-11.432l25.7-41.888A29.7,29.7,0,0,1,130.376,347.052Z" transform="translate(-87.641 -344.023)" fill="#fff" opacity="0.3"/>
              <path id="Caminho_130" data-name="Caminho 130" d="M127.132,350.946l0,.021-26.772,43.572a34.943,34.943,0,0,1-4.874-.494l29-47.222A28.953,28.953,0,0,1,127.132,350.946Z" transform="translate(-71.239 -335.207)" fill="#fff" opacity="0.3"/>
            </g>
            <path id="Caminho_131" data-name="Caminho 131" d="M225.637,356.909l-6.869,1.643a33.355,33.355,0,0,0-59.924,7.861L135.2,372.07a33.354,33.354,0,0,0-57,20.1l-7.06,1.684a5.483,5.483,0,1,0,2.551,10.665l5.222-1.248a33.425,33.425,0,1,0,65.017-15.547c-.129-.552-.315-1.078-.473-1.618,3.866-4.053,8.45-5.438,14.236-4.169.133.8.257,1.593.448,2.389a33.423,33.423,0,1,0,65.013-15.547l5.036-1.207a5.483,5.483,0,1,0-2.551-10.665Zm-107.5,66.668A28.87,28.87,0,1,1,139.5,388.783,28.905,28.905,0,0,1,118.134,423.577Zm23.6-42.153a33.064,33.064,0,0,0-3.215-5.467l19.115-4.571a33.086,33.086,0,0,0-.4,5.89A18.3,18.3,0,0,0,141.737,381.424Zm55.622,23.2a28.868,28.868,0,1,1,21.363-34.79A28.9,28.9,0,0,1,197.359,404.629Z" transform="translate(-66.927 -343.127)" fill="#0a2b46"/>
          </g>
        </g>
      </g>
    </g>
    <g id="Grupo_89" data-name="Grupo 89" transform="translate(637.198 337.089)">
      <circle id="Elipse_4" data-name="Elipse 4" cx="275.035" cy="275.035" r="275.035" transform="translate(0)" opacity="0.2" fill="url(#linear-gradient-5)"/>
    </g>
    <g id="Grupo_97" data-name="Grupo 97" transform="translate(1501.162 316.527)">
      <g id="Grupo_96" data-name="Grupo 96">
        <g id="Grupo_91" data-name="Grupo 91" transform="translate(0 134.934)">
          <g id="Grupo_90" data-name="Grupo 90">
            <path id="Caminho_132" data-name="Caminho 132" d="M408.546,424.092c-2.775,1.141-5.5,2.36-8.118,3.625a1.18,1.18,0,0,0,1.029,2.124c2.572-1.245,5.256-2.447,7.985-3.571a1.177,1.177,0,1,0-.9-2.178Z" transform="translate(-367.319 57.486)" fill="#fff"/>
            <path id="Caminho_133" data-name="Caminho 133" d="M398.745,429.243c-2.252,1.958-4.43,4.024-6.471,6.139a1.176,1.176,0,1,0,1.692,1.634c2-2.066,4.123-4.082,6.326-5.994a1.179,1.179,0,0,0-1.547-1.78Z" transform="translate(-391.942 73.076)" fill="#fff"/>
            <path id="Caminho_134" data-name="Caminho 134" d="M415.222,376.621h0a1.175,1.175,0,0,0,1.174-1.182v-.166c0-.481.008-.966.025-1.46a40.2,40.2,0,0,1,.8-6.894,1.178,1.178,0,0,0-2.306-.481,42.441,42.441,0,0,0-.855,7.3c-.017.514-.025,1.029-.025,1.535v.178A1.178,1.178,0,0,0,415.222,376.621Z" transform="translate(-322.363 -126.682)" fill="#fff"/>
            <path id="Caminho_135" data-name="Caminho 135" d="M415.788,370.618a1.172,1.172,0,0,0,1.6-.461,37.126,37.126,0,0,1,4.978-6.927,1.179,1.179,0,0,0-1.746-1.585,39.371,39.371,0,0,0-5.293,7.371A1.179,1.179,0,0,0,415.788,370.618Z" transform="translate(-318.785 -140.034)" fill="#fff"/>
            <path id="Caminho_136" data-name="Caminho 136" d="M415.265,370.321a1.181,1.181,0,0,0-.825,1.448,39.478,39.478,0,0,0,3.389,8.421,1.172,1.172,0,0,0,1.037.614,1.177,1.177,0,0,0,1.033-1.742,37.042,37.042,0,0,1-3.186-7.915A1.176,1.176,0,0,0,415.265,370.321Z" transform="translate(-321.248 -111.645)" fill="#fff"/>
            <path id="Caminho_137" data-name="Caminho 137" d="M413.52,422.482c-2.879.813-5.737,1.692-8.483,2.609a1.179,1.179,0,0,0,.373,2.3,1.2,1.2,0,0,0,.373-.062c2.713-.9,5.533-1.771,8.375-2.576a1.179,1.179,0,1,0-.639-2.269Z" transform="translate(-353.261 52.563)" fill="#fff"/>
            <path id="Caminho_138" data-name="Caminho 138" d="M427.473,419.344c-2.725,1.008-5.513,1.933-8.292,2.742a1.179,1.179,0,0,0,.328,2.31,1.152,1.152,0,0,0,.332-.05c2.833-.826,5.674-1.767,8.454-2.8a1.177,1.177,0,0,0-.821-2.207Z" transform="translate(-308.862 42.585)" fill="#fff"/>
            <path id="Caminho_139" data-name="Caminho 139" d="M424.887,382.226a1.183,1.183,0,0,0,.634-2.178,39.919,39.919,0,0,1-6.707-5.318,1.178,1.178,0,0,0-1.655,1.676,42.1,42.1,0,0,0,7.1,5.633A1.184,1.184,0,0,0,424.887,382.226Z" transform="translate(-313.664 -98.695)" fill="#fff"/>
            <path id="Caminho_140" data-name="Caminho 140" d="M418.478,421.371c-2.933.548-5.857,1.145-8.686,1.784a1.178,1.178,0,0,0,.257,2.327,1.122,1.122,0,0,0,.261-.029c2.8-.63,5.7-1.224,8.6-1.763a1.179,1.179,0,1,0-.431-2.319Z" transform="translate(-338.639 49.137)" fill="#fff"/>
            <path id="Caminho_141" data-name="Caminho 141" d="M419.652,365.041a1.183,1.183,0,0,0,.643-.191,51.15,51.15,0,0,1,7.6-4.065,1.18,1.18,0,1,0-.937-2.165,53.886,53.886,0,0,0-7.948,4.256,1.178,1.178,0,0,0,.643,2.165Z" transform="translate(-308.421 -148.651)" fill="#fff"/>
            <path id="Caminho_142" data-name="Caminho 142" d="M423.281,420.6c-2.365.469-4.779.871-7.172,1.2-.5.066-.987.137-1.481.2a1.18,1.18,0,0,0,.166,2.348,1.147,1.147,0,0,0,.166-.012c.49-.071.975-.137,1.468-.2,2.439-.336,4.9-.747,7.309-1.22a1.18,1.18,0,0,0-.456-2.315Z" transform="translate(-323.71 46.692)" fill="#fff"/>
            <path id="Caminho_143" data-name="Caminho 143" d="M446.513,381.419a1.178,1.178,0,0,0,1.166,1.012,1.121,1.121,0,0,0,.166-.008,1.186,1.186,0,0,0,1-1.336c-.427-3.007-.958-5.961-1.585-8.777a1.179,1.179,0,1,0-2.3.51C445.575,375.578,446.094,378.469,446.513,381.419Z" transform="translate(-225.12 -108.162)" fill="#fff"/>
            <path id="Caminho_144" data-name="Caminho 144" d="M442.629,354.048a1.188,1.188,0,0,0-1.182,1.186v.149c0,2.908-.066,5.8-.2,8.6a1.172,1.172,0,0,0,1.12,1.232h.058a1.177,1.177,0,0,0,1.174-1.124c.133-2.833.2-5.766.2-8.711v-.166A1.173,1.173,0,0,0,442.629,354.048Z" transform="translate(-236.713 -162.738)" fill="#fff"/>
            <path id="Caminho_145" data-name="Caminho 145" d="M441.907,369.948a1.181,1.181,0,0,0,1.161-.975c.506-2.85.937-5.811,1.282-8.8a1.178,1.178,0,0,0-2.34-.27c-.34,2.941-.763,5.853-1.265,8.661a1.18,1.18,0,0,0,.954,1.365A1.219,1.219,0,0,0,441.907,369.948Z" transform="translate(-238.36 -147.593)" fill="#fff"/>
            <path id="Caminho_146" data-name="Caminho 146" d="M441,363.206a1.184,1.184,0,0,0-.054,1.668,66.924,66.924,0,0,1,5.517,6.687,1.183,1.183,0,0,0,.958.49,1.178,1.178,0,0,0,.954-1.867,69.461,69.461,0,0,0-5.708-6.923A1.18,1.18,0,0,0,441,363.206Z" transform="translate(-238.675 -134.911)" fill="#fff"/>
            <path id="Caminho_147" data-name="Caminho 147" d="M430.676,381.218a1.178,1.178,0,0,0,.166-2.344,48.948,48.948,0,0,1-8.388-1.958,1.177,1.177,0,1,0-.738,2.236,51.141,51.141,0,0,0,8.79,2.053A1.177,1.177,0,0,0,430.676,381.218Z" transform="translate(-300.761 -90.934)" fill="#fff"/>
            <path id="Caminho_148" data-name="Caminho 148" d="M441.169,350.465c.158,2.912.278,5.874.369,8.794a1.181,1.181,0,0,0,1.178,1.145h.033a1.181,1.181,0,0,0,1.145-1.215c-.091-2.941-.216-5.919-.369-8.848a1.18,1.18,0,1,0-2.356.124Z" transform="translate(-236.975 -177.928)" fill="#fff"/>
            <path id="Caminho_149" data-name="Caminho 149" d="M440.167,341c.456,2.883.888,5.811,1.282,8.707a1.175,1.175,0,0,0,1.166,1.02,1.064,1.064,0,0,0,.162-.008,1.179,1.179,0,0,0,1.008-1.327c-.394-2.912-.83-5.861-1.29-8.761a1.178,1.178,0,1,0-2.327.369Z" transform="translate(-240.174 -208.128)" fill="#fff"/>
            <path id="Caminho_150" data-name="Caminho 150" d="M435.324,321.788a1.173,1.173,0,0,0,1.062.672,1.212,1.212,0,0,0,.506-.112,1.182,1.182,0,0,0,.56-1.572c-1.269-2.671-2.584-5.351-3.9-7.96a1.181,1.181,0,0,0-2.107,1.066C432.757,316.47,434.059,319.133,435.324,321.788Z" transform="translate(-267.973 -294.577)" fill="#fff"/>
            <path id="Caminho_151" data-name="Caminho 151" d="M440.791,345.718c.307,2.9.589,5.853.83,8.761a1.175,1.175,0,0,0,1.17,1.083l.1,0a1.176,1.176,0,0,0,1.078-1.269c-.241-2.929-.523-5.895-.834-8.819a1.178,1.178,0,1,0-2.344.249Z" transform="translate(-238.181 -193.068)" fill="#fff"/>
            <path id="Caminho_152" data-name="Caminho 152" d="M436.921,326.293a1.18,1.18,0,0,0,1.091.73,1.211,1.211,0,0,0,.448-.087,1.18,1.18,0,0,0,.643-1.539c-1.12-2.717-2.286-5.463-3.468-8.155a1.178,1.178,0,1,0-2.157.946C434.652,320.863,435.809,323.592,436.921,326.293Z" transform="translate(-261.497 -280.83)" fill="#fff"/>
            <path id="Caminho_153" data-name="Caminho 153" d="M433.518,317.36a1.17,1.17,0,0,0,1.033.614,1.2,1.2,0,0,0,.564-.145,1.181,1.181,0,0,0,.469-1.6c-1.448-2.638-2.92-5.235-4.376-7.716a1.178,1.178,0,1,0-2.033,1.191C430.623,312.163,432.083,314.739,433.518,317.36Z" transform="translate(-275.235 -307.928)" fill="#fff"/>
            <path id="Caminho_154" data-name="Caminho 154" d="M432.5,358.845a1.171,1.171,0,0,0,.8,1.456,79.967,79.967,0,0,1,8.213,2.854,1.212,1.212,0,0,0,.448.087,1.179,1.179,0,0,0,.448-2.269,83.764,83.764,0,0,0-8.458-2.937A1.179,1.179,0,0,0,432.5,358.845Z" transform="translate(-264.42 -150.328)" fill="#fff"/>
            <path id="Caminho_155" data-name="Caminho 155" d="M403.589,426.31c-2.576,1.535-5.09,3.157-7.479,4.833a1.178,1.178,0,0,0,.676,2.145,1.163,1.163,0,0,0,.676-.212c2.34-1.643,4.808-3.24,7.334-4.737a1.18,1.18,0,0,0-1.207-2.028Z" transform="translate(-380.406 64.229)" fill="#fff"/>
            <path id="Caminho_156" data-name="Caminho 156" d="M440.289,374.3a1.212,1.212,0,0,0,.4.066,1.176,1.176,0,0,0,1.108-.78c.979-2.734,1.875-5.6,2.667-8.508a1.18,1.18,0,1,0-2.277-.618c-.772,2.854-1.651,5.658-2.609,8.329A1.182,1.182,0,0,0,440.289,374.3Z" transform="translate(-242.205 -132.688)" fill="#fff"/>
            <path id="Caminho_157" data-name="Caminho 157" d="M445.279,399.634a1.177,1.177,0,0,0-1.576.548c-1.273,2.634-2.617,5.264-3.99,7.815a1.179,1.179,0,0,0,2.074,1.12c1.39-2.584,2.75-5.243,4.04-7.91A1.178,1.178,0,0,0,445.279,399.634Z" transform="translate(-241.997 -19.605)" fill="#fff"/>
            <path id="Caminho_158" data-name="Caminho 158" d="M442.184,345.9a1.017,1.017,0,0,0,.22-.021,1.175,1.175,0,0,0,.937-1.373c-.543-2.891-1.128-5.811-1.738-8.686a1.179,1.179,0,1,0-2.306.49c.606,2.858,1.19,5.762,1.73,8.632A1.18,1.18,0,0,0,442.184,345.9Z" transform="translate(-242.942 -223.063)" fill="#fff"/>
            <path id="Caminho_159" data-name="Caminho 159" d="M446.067,365.079a74.777,74.777,0,0,0-7.417-5.028,1.179,1.179,0,0,0-1.2,2.029,71.768,71.768,0,0,1,7.185,4.866,1.177,1.177,0,1,0,1.435-1.866Z" transform="translate(-250.501 -144.355)" fill="#fff"/>
            <path id="Caminho_160" data-name="Caminho 160" d="M446.5,395.157a1.181,1.181,0,0,0-1.518.693c-1.021,2.734-2.107,5.476-3.236,8.151a1.177,1.177,0,0,0,.631,1.543,1.115,1.115,0,0,0,.456.1,1.181,1.181,0,0,0,1.087-.726c1.136-2.7,2.24-5.476,3.269-8.238A1.182,1.182,0,0,0,446.5,395.157Z" transform="translate(-235.457 -33.558)" fill="#fff"/>
            <path id="Caminho_161" data-name="Caminho 161" d="M440.47,331.069a1.178,1.178,0,1,0-2.277.606c.747,2.821,1.477,5.691,2.165,8.537a1.18,1.18,0,0,0,1.145.9,1.27,1.27,0,0,0,.278-.033,1.177,1.177,0,0,0,.867-1.423C441.954,336.793,441.22,333.906,440.47,331.069Z" transform="translate(-246.471 -237.841)" fill="#fff"/>
            <path id="Caminho_162" data-name="Caminho 162" d="M443.422,368.225a1.177,1.177,0,0,0-1.576.535,85.679,85.679,0,0,1-4.244,7.591,1.177,1.177,0,0,0,.369,1.626,1.156,1.156,0,0,0,.626.182,1.181,1.181,0,0,0,1-.552,87.246,87.246,0,0,0,4.36-7.807A1.173,1.173,0,0,0,443.422,368.225Z" transform="translate(-248.772 -118.489)" fill="#fff"/>
            <path id="Caminho_163" data-name="Caminho 163" d="M447.928,377.272a1.178,1.178,0,0,0-2.352.133c.158,2.8.24,5.7.24,8.6v.162a1.178,1.178,0,1,0,2.356,0V386C448.172,383.055,448.089,380.118,447.928,377.272Z" transform="translate(-223.104 -93.119)" fill="#fff"/>
            <path id="Caminho_164" data-name="Caminho 164" d="M447.4,380.989a1.174,1.174,0,0,0-1.257,1.1c-.191,2.87-.456,5.816-.792,8.744a1.173,1.173,0,0,0,1.033,1.3l.137.008a1.182,1.182,0,0,0,1.17-1.045c.34-2.962.61-5.944.8-8.852A1.179,1.179,0,0,0,447.4,380.989Z" transform="translate(-223.82 -77.937)" fill="#fff"/>
            <path id="Caminho_165" data-name="Caminho 165" d="M447.292,390.529a1.179,1.179,0,0,0-1.444.83c-.767,2.808-1.6,5.645-2.481,8.429a1.182,1.182,0,0,0,.767,1.481,1.2,1.2,0,0,0,.357.054,1.176,1.176,0,0,0,1.124-.821c.888-2.817,1.734-5.683,2.505-8.525A1.182,1.182,0,0,0,447.292,390.529Z" transform="translate(-230.221 -48.02)" fill="#fff"/>
            <path id="Caminho_166" data-name="Caminho 166" d="M449.1,375.743a73.3,73.3,0,0,0-3.493-8.259,1.179,1.179,0,0,0-2.111,1.05,69.927,69.927,0,0,1,3.381,7.993,1.179,1.179,0,0,0,2.224-.784Z" transform="translate(-230.037 -122.489)" fill="#fff"/>
            <path id="Caminho_167" data-name="Caminho 167" d="M447.623,385.795a1.18,1.18,0,0,0-1.365.962c-.49,2.854-1.058,5.753-1.676,8.624a1.173,1.173,0,0,0,.9,1.4,1.05,1.05,0,0,0,.253.029,1.181,1.181,0,0,0,1.149-.929c.626-2.9,1.2-5.837,1.7-8.724A1.178,1.178,0,0,0,447.623,385.795Z" transform="translate(-226.313 -62.852)" fill="#fff"/>
            <path id="Caminho_168" data-name="Caminho 168" d="M434.6,414.822c-2.306,1.792-4.687,3.518-7.073,5.14a1.18,1.18,0,0,0,1.323,1.954c2.427-1.651,4.849-3.41,7.193-5.231a1.178,1.178,0,1,0-1.443-1.862Z" transform="translate(-281.554 27.801)" fill="#fff"/>
            <path id="Caminho_169" data-name="Caminho 169" d="M437.832,358.04a83.836,83.836,0,0,0-8.914-.8,1.163,1.163,0,0,0-1.22,1.137,1.178,1.178,0,0,0,1.137,1.22,81.156,81.156,0,0,1,8.657.78,1.2,1.2,0,0,0,.17.013,1.178,1.178,0,0,0,.17-2.344Z" transform="translate(-279.382 -152.709)" fill="#fff"/>
            <path id="Caminho_170" data-name="Caminho 170" d="M431.262,417.394c-2.535,1.427-5.148,2.783-7.757,4.028a1.176,1.176,0,0,0,.506,2.24,1.211,1.211,0,0,0,.506-.112c2.659-1.265,5.318-2.646,7.9-4.1a1.179,1.179,0,1,0-1.157-2.053Z" transform="translate(-294.698 36.202)" fill="#fff"/>
            <path id="Caminho_171" data-name="Caminho 171" d="M443.658,403.921a1.183,1.183,0,0,0-1.622.39c-1.535,2.505-3.136,4.986-4.758,7.379a1.178,1.178,0,1,0,1.95,1.323c1.647-2.423,3.265-4.936,4.816-7.471A1.182,1.182,0,0,0,443.658,403.921Z" transform="translate(-249.858 -6.276)" fill="#fff"/>
            <path id="Caminho_172" data-name="Caminho 172" d="M440.284,375.834a1.177,1.177,0,0,0-1.626-.369,59.909,59.909,0,0,1-7.633,4.061,1.178,1.178,0,0,0,.477,2.257,1.159,1.159,0,0,0,.477-.1,61.979,61.979,0,0,0,7.935-4.223A1.177,1.177,0,0,0,440.284,375.834Z" transform="translate(-271.112 -95.891)" fill="#fff"/>
            <path id="Caminho_173" data-name="Caminho 173" d="M432.663,357.334a73.328,73.328,0,0,0-8.848,1.5,1.179,1.179,0,0,0,.27,2.327,1.029,1.029,0,0,0,.27-.033,71.061,71.061,0,0,1,8.557-1.448,1.178,1.178,0,0,0-.249-2.344Z" transform="translate(-294.465 -152.414)" fill="#fff"/>
            <path id="Caminho_174" data-name="Caminho 174" d="M436.723,378.047a1.182,1.182,0,0,0-1.414-.888,55.028,55.028,0,0,1-8.541,1.257,1.177,1.177,0,0,0,.079,2.352l.079,0a57.291,57.291,0,0,0,8.91-1.307A1.181,1.181,0,0,0,436.723,378.047Z" transform="translate(-285.777 -90.074)" fill="#fff"/>
            <path id="Caminho_175" data-name="Caminho 175" d="M437.482,321.765a1.178,1.178,0,1,0-2.2.834c1.033,2.738,2.049,5.521,3.02,8.271a1.179,1.179,0,0,0,1.112.788,1.21,1.21,0,0,0,.394-.066,1.179,1.179,0,0,0,.718-1.5C439.547,327.319,438.523,324.519,437.482,321.765Z" transform="translate(-255.757 -266.761)" fill="#fff"/>
            <path id="Caminho_176" data-name="Caminho 176" d="M440.578,336.359a1.179,1.179,0,0,0,1.128-1.514c-.838-2.825-1.717-5.675-2.613-8.466a1.179,1.179,0,0,0-2.244.722c.892,2.775,1.767,5.6,2.6,8.412A1.173,1.173,0,0,0,440.578,336.359Z" transform="translate(-250.748 -252.418)" fill="#fff"/>
            <path id="Caminho_177" data-name="Caminho 177" d="M437.5,411.718c-2.057,2.091-4.185,4.136-6.322,6.069a1.178,1.178,0,0,0,.792,2.053,1.17,1.17,0,0,0,.792-.307c2.169-1.966,4.326-4.04,6.417-6.164a1.178,1.178,0,1,0-1.68-1.651Z" transform="translate(-269.642 17.702)" fill="#fff"/>
            <path id="Caminho_178" data-name="Caminho 178" d="M440.774,372.542a69.661,69.661,0,0,1-6.04,6.218,1.178,1.178,0,0,0,1.581,1.746,71.144,71.144,0,0,0,6.251-6.434,1.178,1.178,0,0,0-1.792-1.531Z" transform="translate(-258.456 -105.814)" fill="#fff"/>
            <path id="Caminho_179" data-name="Caminho 179" d="M441.626,407.971a1.181,1.181,0,0,0-1.655.211c-1.8,2.327-3.659,4.617-5.538,6.811a1.178,1.178,0,1,0,1.792,1.531c1.9-2.223,3.791-4.542,5.612-6.9A1.176,1.176,0,0,0,441.626,407.971Z" transform="translate(-259.068 6.242)" fill="#fff"/>
          </g>
        </g>
        <g id="Grupo_95" data-name="Grupo 95" transform="translate(87.303)">
          <g id="Grupo_92" data-name="Grupo 92">
            <path id="Caminho_180" data-name="Caminho 180" d="M495.27,377.7l-13.7,29.708-32.186-5.868L412.989,275.4Z" transform="translate(-412.989 -275.399)" fill="#d7d7d7"/>
          </g>
          <g id="Grupo_93" data-name="Grupo 93" transform="translate(0 0)">
            <path id="Caminho_181" data-name="Caminho 181" d="M412.989,275.4l.061,145.012,49.056-25.484Z" transform="translate(-412.989 -275.399)" fill="#fff"/>
          </g>
          <g id="Grupo_94" data-name="Grupo 94" transform="translate(0 0)">
            <path id="Caminho_182" data-name="Caminho 182" d="M412.989,275.4,531.6,358.824l-49.056,25.484Z" transform="translate(-412.989 -275.399)" fill="#fff"/>
          </g>
        </g>
      </g>
    </g>
    <g id="Grupo_100" data-name="Grupo 100" transform="translate(1300.146 534.836)">
      <path id="Caminho_183" data-name="Caminho 183" d="M644.16,408.893,440.1,334.454l-2.791,7.649-.023-.008-93.8,257.14,32.408,11.822h0L516.6,662.386h0l9.925,3.62,21.018,7.667,2.79-7.65.023.008Z" transform="translate(-343.482 -307.797)" fill="url(#linear-gradient-6)"/>
      <g id="Grupo_99" data-name="Grupo 99" transform="translate(0.611 0)">
        <g id="Grupo_98" data-name="Grupo 98" transform="translate(0)">
          <rect id="Retângulo_82" data-name="Retângulo 82" width="273.714" height="217.216" transform="matrix(0.343, -0.939, 0.939, 0.343, 1.811, 257.139)" fill="#03142b"/>
          <rect id="Retângulo_83" data-name="Retângulo 83" width="273.714" height="217.216" transform="matrix(0.343, -0.939, 0.939, 0.343, 0, 262.148)" fill="#0a2b46"/>
          <rect id="Retângulo_84" data-name="Retângulo 84" width="273.713" height="34.497" transform="translate(0 262.148) rotate(-69.959)" fill="#03142b"/>
          <rect id="Retângulo_85" data-name="Retângulo 85" width="273.714" height="11.704" transform="translate(173.12 325.3) rotate(-69.959)" fill="#03142b"/>
        </g>
      </g>
    </g>
    <g id="Grupo_103" data-name="Grupo 103" transform="translate(1403.999 365.445)">
      <path id="Caminho_184" data-name="Caminho 184" d="M481.722,333.434l-6.38-35.251a4.346,4.346,0,0,0-1.809-2.812l0-.008-1.282-1-.747-.585-3.684-2.887c-.058-.05-.12-.1-.182-.141l-.162-.129h0a4.351,4.351,0,0,0-3.269-.713l-91.387,16.534a4.362,4.362,0,0,0-2.812,1.813l-.116.021.021.133a4.347,4.347,0,0,0-.61,3.111l6.375,35.251a4.354,4.354,0,0,0,2.037,2.949h0l.448.357,3.688,2.916.66.523.676.535.187.145a4.335,4.335,0,0,0,3.447.846L478.2,338.507A4.367,4.367,0,0,0,481.722,333.434Z" transform="translate(-366.279 -278.865)" fill="url(#linear-gradient-7)"/>
      <g id="Grupo_102" data-name="Grupo 102" transform="translate(0 0)">
        <g id="Grupo_101" data-name="Grupo 101" transform="translate(1.366 1.489)">
          <path id="Caminho_185" data-name="Caminho 185" d="M477.159,335.437l-91.379,16.534a4.336,4.336,0,0,1-3.447-.846l-.187-.145-.676-.535-.66-.523-3.688-2.916-.448-.357-.423-.527-7.4-40.917,97.584-17.654,4.028,3.157.747.585,1.282,1,.008,0a4.365,4.365,0,0,1,1.8,2.817l6.38,35.251A4.367,4.367,0,0,1,477.159,335.437Z" transform="translate(-368.848 -287.551)" fill="#03142b"/>
          <path id="Caminho_186" data-name="Caminho 186" d="M437.91,305.331,379.5,315.9a4.336,4.336,0,0,1-3.447-.846l-.187-.145-.676-.535-.66-.523-3.688-2.916,65.926-11.926Z" transform="translate(-362.567 -251.48)" fill="#d8223b"/>
          <path id="Caminho_187" data-name="Caminho 187" d="M466.035,331.108l-93.644,16.941-.66-.523,94.191-17.04a3.041,3.041,0,0,0,2.452-3.526l-6.994-38.648.747.585L469,326.844A3.676,3.676,0,0,1,466.035,331.108Z" transform="translate(-359.769 -285.155)" fill="#fff"/>
        </g>
        <path id="Retângulo_86" data-name="Retângulo 86" d="M1.053,0h99.492A1.053,1.053,0,0,1,101.6,1.053V43.5a1.053,1.053,0,0,1-1.053,1.053H1.051A1.051,1.051,0,0,1,0,43.506V1.053A1.053,1.053,0,0,1,1.053,0Z" transform="translate(0 18.088) rotate(-10.256)" fill="#0a2b46"/>
        <path id="Caminho_188" data-name="Caminho 188" d="M443.667,332.447l-63.454,11.478a4.367,4.367,0,0,1-5.073-3.518l-6.38-35.251a4.369,4.369,0,0,1,3.522-5.077L435.735,288.6Z" transform="translate(-367.983 -282.769)" fill="#ee3543"/>
      </g>
    </g>
    <g id="Grupo_106" data-name="Grupo 106" transform="translate(531.773 346.496)">
      <g id="Grupo_104" data-name="Grupo 104" transform="translate(680.29)">
        <path id="Caminho_189" data-name="Caminho 189" d="M394.317,318.659c-33.529,1.385-34.653,2.505-36.035,36.035-1.381-33.529-2.505-34.649-36.035-36.035,33.529-1.386,34.653-2.505,36.035-36.035C359.664,316.153,360.788,317.273,394.317,318.659Z" transform="translate(-322.248 -282.624)" fill="#fff"/>
      </g>
      <g id="Grupo_105" data-name="Grupo 105" transform="translate(0 470.155)">
        <path id="Caminho_190" data-name="Caminho 190" d="M230.317,432c-33.529,1.385-34.653,2.505-36.035,36.035-1.381-33.529-2.505-34.649-36.035-36.035,33.529-1.386,34.653-2.505,36.035-36.035C195.664,429.5,196.788,430.615,230.317,432Z" transform="translate(-158.248 -395.966)" fill="#fff"/>
      </g>
    </g>
    <g id="Grupo_108" data-name="Grupo 108" transform="translate(371.931 506.78)">
      <path id="Caminho_191" data-name="Caminho 191" d="M242.918,322.155l-6.778,2.224-13.1,4.3v0l-88.492,82.44-1.236,1.149-7.027,6.546-5.023,4.679a.794.794,0,0,0-.037,1.124L132.1,436.286a.794.794,0,0,0,1.124.041l5.023-4.679L235,341.51h0l5.214-12.755Z" transform="translate(-115.622 -318.459)" fill="url(#linear-gradient-8)"/>
      <g id="Grupo_107" data-name="Grupo 107" transform="translate(0)">
        <rect id="Retângulo_87" data-name="Retângulo 87" width="17.541" height="132.24" transform="matrix(0.682, 0.732, -0.732, 0.682, 102.363, 6.523)" fill="#ffc813"/>
        <path id="Caminho_192" data-name="Caminho 192" d="M156.348,340.623l-11.957-12.835,13.093-4.3,6.778-2.224-2.7,6.6Z" transform="translate(-42.03 -321.264)" fill="#fab08d"/>
        <rect id="Retângulo_88" data-name="Retângulo 88" width="17.541" height="9.608" transform="matrix(0.682, 0.732, -0.732, 0.682, 12.633, 90.113)" fill="#0a2b46"/>
        <path id="Retângulo_89" data-name="Retângulo 89" d="M0,0H17.541a0,0,0,0,1,0,0V6.458a1.2,1.2,0,0,1-1.2,1.2H1.2A1.2,1.2,0,0,1,0,6.458V0A0,0,0,0,1,0,0Z" transform="matrix(0.682, 0.732, -0.732, 0.682, 5.603, 96.662)" fill="#ee3543"/>
        <path id="Caminho_193" data-name="Caminho 193" d="M151.627,327.868l-4.08-4.38,6.778-2.224Z" transform="translate(-32.094 -321.264)" fill="#1d3b50"/>
        <rect id="Retângulo_90" data-name="Retângulo 90" width="6.89" height="17.54" transform="translate(12.634 90.114) rotate(-42.971)" fill="#fa9712"/>
        <path id="Caminho_194" data-name="Caminho 194" d="M198.661,324.951,127.006,391.7a1.341,1.341,0,0,0-.066,1.891h0a1.339,1.339,0,0,0,1.9.066l71.654-66.751a1.341,1.341,0,0,0,.066-1.891h0A1.339,1.339,0,0,0,198.661,324.951Z" transform="translate(-98.095 -310.794)" fill="#fa9712"/>
        <path id="Caminho_195" data-name="Caminho 195" d="M199.792,326.159,128.138,392.91a1.334,1.334,0,0,0-.066,1.891h0a1.338,1.338,0,0,0,1.892.07l71.654-66.751a1.339,1.339,0,0,0,.066-1.9h0A1.338,1.338,0,0,0,199.792,326.159Z" transform="translate(-94.543 -306.987)" fill="#fa9712"/>
      </g>
    </g>
    <g id="Grupo_110" data-name="Grupo 110" transform="translate(360.139 824.445)">
      <path id="Caminho_196" data-name="Caminho 196" d="M187.738,405.949l.008-.006-13.484-2.249-19.4-3.247-21.333,28.622-16.252-.381.019.007h-.019l3.1,20.552,12.7,19.158,31.658,4.256,24.132-12.32,17.965-29.065Z" transform="translate(-115.582 -389.657)" fill="url(#linear-gradient-9)"/>
      <g id="Grupo_109" data-name="Grupo 109">
        <path id="Caminho_197" data-name="Caminho 197" d="M206.429,428.674l-17.966,29.065-24.132,12.32L132.674,465.8l-12.7-19.157-3.1-20.552,16.247.38,21.338-28.628,32.871,5.5Z" transform="translate(-116.871 -397.845)" fill="#fff"/>
        <path id="Caminho_198" data-name="Caminho 198" d="M152.1,405.277,134.13,434.341l1.829-17.432Z" transform="translate(-62.539 -374.448)" fill="#d7d7d7"/>
        <path id="Caminho_199" data-name="Caminho 199" d="M116.871,404.653l26.364,9.644-10.111-9.263Z" transform="translate(-116.871 -376.412)" fill="#d7d7d7"/>
        <path id="Caminho_200" data-name="Caminho 200" d="M125.931,397.847,139.252,419.3l19.565-15.968Z" transform="translate(-88.352 -397.838)" fill="#d7d7d7"/>
      </g>
    </g>
    <g id="Grupo_112" data-name="Grupo 112" transform="translate(1438.846 485.924)">
      <path id="Caminho_201" data-name="Caminho 201" d="M528.751,380.9l-5.032-5.052-9.731-9.76h0L400.554,324.129l-1.581-.585-9.014-3.331-6.434-2.381a.8.8,0,0,0-1.025.469l-5.534,14.958a.8.8,0,0,0,.473,1.025l6.434,2.381L507.9,382.538v0l13.739-1.074Z" transform="translate(-376.919 -311.371)" fill="url(#linear-gradient-10)"/>
      <g id="Grupo_111" data-name="Grupo 111" transform="translate(0.795 0)">
        <rect id="Retângulo_91" data-name="Retângulo 91" width="17.541" height="132.24" transform="matrix(-0.347, 0.938, -0.938, -0.347, 137.296, 48.531)" fill="#ffc813"/>
        <path id="Caminho_202" data-name="Caminho 202" d="M408.742,344.388l6.085-16.452,9.73,9.759,5.034,5.053-7.111.561Z" transform="translate(-277.533 -279.406)" fill="#fab08d"/>
        <rect id="Retângulo_92" data-name="Retângulo 92" width="17.541" height="9.608" transform="matrix(-0.347, 0.938, -0.938, -0.347, 22.279, 5.99)" fill="#0a2b46"/>
        <path id="Retângulo_93" data-name="Retângulo 93" d="M0,0H17.541a0,0,0,0,1,0,0V6.458a1.2,1.2,0,0,1-1.2,1.2H1.2A1.2,1.2,0,0,1,0,6.458V0A0,0,0,0,1,0,0Z" transform="translate(13.268 2.657) rotate(110.299)" fill="#ee3543"/>
        <path id="Caminho_203" data-name="Caminho 203" d="M412.054,335.9l2.077-5.615,5.034,5.053Z" transform="translate(-267.107 -272)" fill="#1d3b50"/>
        <rect id="Retângulo_94" data-name="Retângulo 94" width="17.54" height="6.89" transform="translate(16.194 22.441) rotate(-69.702)" fill="#fa9712"/>
        <path id="Caminho_204" data-name="Caminho 204" d="M479.446,354.224,387.6,320.251a1.341,1.341,0,0,0-1.722.792h0a1.34,1.34,0,0,0,.792,1.722l91.847,33.973a1.34,1.34,0,0,0,1.722-.792h0A1.338,1.338,0,0,0,479.446,354.224Z" transform="translate(-349.777 -303.863)" fill="#fa9712"/>
        <path id="Caminho_205" data-name="Caminho 205" d="M478.875,355.775,387.027,321.8a1.34,1.34,0,0,0-1.722.792h0a1.338,1.338,0,0,0,.792,1.721l91.847,33.973a1.341,1.341,0,0,0,1.721-.792h0A1.34,1.34,0,0,0,478.875,355.775Z" transform="translate(-351.578 -298.977)" fill="#fa9712"/>
      </g>
    </g>
  </g>
</svg>
